<svg width="65" height="65" viewBox="0 0 65 65" fill="none" xmlns="http://www.w3.org/2000/svg">
<path d="M44.1797 30.4688H34.5312V20.8203C34.5312 20.541 34.3027 20.3125 34.0234 20.3125H30.9766C30.6973 20.3125 30.4688 20.541 30.4688 20.8203V30.4688H20.8203C20.541 30.4688 20.3125 30.6973 20.3125 30.9766V34.0234C20.3125 34.3027 20.541 34.5312 20.8203 34.5312H30.4688V44.1797C30.4688 44.459 30.6973 44.6875 30.9766 44.6875H34.0234C34.3027 44.6875 34.5312 44.459 34.5312 44.1797V34.5312H44.1797C44.459 34.5312 44.6875 34.3027 44.6875 34.0234V30.9766C44.6875 30.6973 44.459 30.4688 44.1797 30.4688Z" fill="black"/>
<path d="M32.5 4.0625C16.7959 4.0625 4.0625 16.7959 4.0625 32.5C4.0625 48.2041 16.7959 60.9375 32.5 60.9375C48.2041 60.9375 60.9375 48.2041 60.9375 32.5C60.9375 16.7959 48.2041 4.0625 32.5 4.0625ZM32.5 56.1133C19.4619 56.1133 8.88672 45.5381 8.88672 32.5C8.88672 19.4619 19.4619 8.88672 32.5 8.88672C45.5381 8.88672 56.1133 19.4619 56.1133 32.5C56.1133 45.5381 45.5381 56.1133 32.5 56.1133Z" fill="black"/>
</svg>
