<svg width="65" height="25" viewBox="0 0 176 65" fill="none" xmlns="http://www.w3.org/2000/svg">
<path d="M44.1797 30.4688H34.5312V20.8203C34.5312 20.541 34.3027 20.3125 34.0234 20.3125H30.9766C30.6973 20.3125 30.4688 20.541 30.4688 20.8203V30.4688H20.8203C20.541 30.4688 20.3125 30.6973 20.3125 30.9766V34.0234C20.3125 34.3027 20.541 34.5312 20.8203 34.5312H30.4688V44.1797C30.4688 44.459 30.6973 44.6875 30.9766 44.6875H34.0234C34.3027 44.6875 34.5312 44.459 34.5312 44.1797V34.5312H44.1797C44.459 34.5312 44.6875 34.3027 44.6875 34.0234V30.9766C44.6875 30.6973 44.459 30.4688 44.1797 30.4688Z" fill="black"/>
<path d="M32.5 4.0625C16.7959 4.0625 4.0625 16.7959 4.0625 32.5C4.0625 48.2041 16.7959 60.9375 32.5 60.9375C48.2041 60.9375 60.9375 48.2041 60.9375 32.5C60.9375 16.7959 48.2041 4.0625 32.5 4.0625ZM32.5 56.1133C19.4619 56.1133 8.88672 45.5381 8.88672 32.5C8.88672 19.4619 19.4619 8.88672 32.5 8.88672C45.5381 8.88672 56.1133 19.4619 56.1133 32.5C56.1133 45.5381 45.5381 56.1133 32.5 56.1133Z" fill="black"/>
<path d="M85.3054 49H81.1506L93.1676 16.2727H97.2585L109.276 49H105.121L95.3409 21.4503H95.0852L85.3054 49ZM86.8395 36.2159H103.587V39.7315H86.8395V36.2159ZM124.473 49H114.373V16.2727H124.92C128.095 16.2727 130.811 16.9279 133.07 18.2383C135.328 19.538 137.06 21.4077 138.263 23.8473C139.467 26.2763 140.069 29.1847 140.069 32.5724C140.069 35.9815 139.462 38.9165 138.248 41.3775C137.033 43.8278 135.265 45.7134 132.942 47.0344C130.62 48.3448 127.797 49 124.473 49ZM118.336 45.4844H124.217C126.923 45.4844 129.165 44.9624 130.945 43.9183C132.724 42.8743 134.05 41.3881 134.924 39.4599C135.797 37.5316 136.234 35.2358 136.234 32.5724C136.234 29.9304 135.803 27.6559 134.94 25.7489C134.077 23.8313 132.788 22.3611 131.072 21.3384C129.357 20.305 127.221 19.7884 124.664 19.7884H118.336V45.4844ZM156.816 49H146.717V16.2727H157.264C160.439 16.2727 163.155 16.9279 165.414 18.2383C167.672 19.538 169.403 21.4077 170.607 23.8473C171.811 26.2763 172.413 29.1847 172.413 32.5724C172.413 35.9815 171.806 38.9165 170.591 41.3775C169.377 43.8278 167.608 45.7134 165.286 47.0344C162.963 48.3448 160.14 49 156.816 49ZM150.68 45.4844H156.561C159.267 45.4844 161.509 44.9624 163.288 43.9183C165.067 42.8743 166.394 41.3881 167.267 39.4599C168.141 37.5316 168.578 35.2358 168.578 32.5724C168.578 29.9304 168.146 27.6559 167.283 25.7489C166.42 23.8313 165.131 22.3611 163.416 21.3384C161.701 20.305 159.565 19.7884 157.008 19.7884H150.68V45.4844Z" fill="black"/>
</svg>
