<svg width="65" height="64" viewBox="0 0 65 64" fill="none" xmlns="http://www.w3.org/2000/svg">
<path d="M57.5792 33.9657H47.2418V28.7969H57.5792V33.9657ZM57.5792 36.9191H47.2418V42.0879H57.5792V36.9191ZM57.5792 12.5525H47.2418V17.7211H57.5792V12.5526V12.5525ZM57.5792 20.6747H47.2418V25.8433H57.5792V20.6747ZM57.5792 45.0413H47.2418V50.2101H57.5792V45.0412V45.0413ZM64.7193 55.2311C64.424 56.7669 62.578 56.8038 61.3449 56.8556H38.3812V63.5009H33.7958L0 57.5938V5.91449L33.9952 0H38.3812V5.88491H60.5548C61.8028 5.93658 63.1762 5.84797 64.2615 6.59369C65.0221 7.6865 64.9483 9.07473 65 10.3299L64.9704 48.7702C64.9336 50.9188 65.1697 53.112 64.7193 55.2311ZM27.0764 43.6458C25.0386 39.511 22.9638 35.4054 20.9332 31.2704C22.9416 27.2463 24.9205 23.2074 26.892 19.1684C25.2158 19.2496 23.5396 19.353 21.871 19.4712C20.623 22.5059 19.1684 25.4594 18.1938 28.5976C17.2856 25.6367 16.082 22.7864 14.9819 19.8994C13.3574 19.988 11.7329 20.084 10.1085 20.18C11.8215 23.9606 13.6454 27.6892 15.3067 31.492C13.35 35.1839 11.5188 38.9276 9.62114 42.6416C11.2381 42.708 12.8553 42.7746 14.4723 42.7966C15.6242 39.8579 17.0567 37.0299 18.0609 34.0321C18.9617 37.2515 20.4901 40.2271 21.7454 43.3061C23.5249 43.4318 25.2971 43.5425 27.0766 43.6458H27.0764ZM61.4783 9.39174H38.3812V12.5525H44.2883V17.7211H38.3812V20.6747H44.2883V25.8433H38.3812V28.7969H44.2883V33.9657H38.3812V36.9191H44.2883V42.0879H38.3812V45.0413H44.2883V50.2101H38.3812V53.6247H61.4783V9.39174Z" fill="#4ECB71"/>
</svg>
