<svg width="20" height="20" viewBox="0 0 50 50" fill="none" xmlns="http://www.w3.org/2000/svg">
<path fill-rule="evenodd" clip-rule="evenodd" d="M20.3125 5.46875C20.3125 5.26155 20.3948 5.06284 20.5413 4.91632C20.6878 4.76981 20.8865 4.6875 21.0938 4.6875H28.9062C29.1135 4.6875 29.3122 4.76981 29.4587 4.91632C29.6052 5.06284 29.6875 5.26155 29.6875 5.46875V9.375H20.3125V5.46875ZM34.375 5.46875V9.375H41.4062C42.0279 9.375 42.624 9.62193 43.0635 10.0615C43.5031 10.501 43.75 11.0971 43.75 11.7188C43.75 12.3404 43.5031 12.9365 43.0635 13.376C42.624 13.8156 42.0279 14.0625 41.4062 14.0625H8.59375C7.97215 14.0625 7.37601 13.8156 6.93647 13.376C6.49693 12.9365 6.25 12.3404 6.25 11.7188C6.25 11.0971 6.49693 10.501 6.93647 10.0615C7.37601 9.62193 7.97215 9.375 8.59375 9.375H15.625V5.46875C15.625 2.45 18.075 0 21.0938 0H28.9062C31.925 0 34.375 2.45 34.375 5.46875ZM14.05 20.8594C14.0266 20.5475 13.941 20.2434 13.7982 19.9651C13.6555 19.6868 13.4585 19.4399 13.2188 19.239C12.9792 19.038 12.7017 18.887 12.4028 18.7949C12.1039 18.7029 11.7896 18.6716 11.4784 18.7028C11.1672 18.7341 10.8654 18.8274 10.5908 18.9771C10.3162 19.1269 10.0743 19.33 9.87949 19.5747C9.68463 19.8193 9.54072 20.1005 9.45622 20.4017C9.37173 20.7028 9.34836 21.0178 9.3875 21.3281L11.45 41.9531C11.5856 43.3019 12.2172 44.5523 13.2225 45.4617C14.2278 46.3712 15.535 46.8748 16.8906 46.875H33.1094C35.9219 46.875 38.2719 44.7469 38.55 41.95L40.6125 21.325C40.6563 20.7162 40.4608 20.1144 40.0678 19.6475C39.6747 19.1806 39.115 18.8854 38.5077 18.8248C37.9004 18.7642 37.2934 18.9428 36.8157 19.3227C36.3381 19.7027 36.0275 20.254 35.95 20.8594L33.8875 41.4844C33.8681 41.6772 33.7778 41.856 33.634 41.9859C33.4902 42.1158 33.3032 42.1877 33.1094 42.1875H16.8906C16.6968 42.1877 16.5098 42.1158 16.366 41.9859C16.2222 41.856 16.1319 41.6772 16.1125 41.4844L14.05 20.8594Z" fill="#F24E1E"/>
</svg>
